<svg t="1748959673362" class="icon" viewBox="0 0 1024 1024" version="1.1" xmlns="http://www.w3.org/2000/svg" p-id="991" width="200" height="200"><path d="M0 0h1024v1024H0z" fill="#FFFFFF" p-id="992"></path><path d="M725.333333 117.333333a32 32 0 0 1 27.157334 15.082667l1.472 2.624 81.706666 163.605333L928 298.666667v64l-60.352-0.021334 56.810667 113.706667a32 32 0 0 1 3.221333 11.328l0.149333 2.986667 0.170667 298.666666v85.333334a32 32 0 0 1-28.928 31.850666L896 906.666667h-170.666667a32 32 0 0 1-31.850666-28.928L693.333333 874.666667l-0.021333-53.333334h-362.666667L330.666667 874.666667a32 32 0 0 1-25.92 31.424l-2.986667 0.426666L298.666667 906.666667H128a32 32 0 0 1-31.850667-28.928L96 874.666667V490.666667c0-3.968 0.746667-7.893333 2.176-11.584l1.194667-2.730667L156.224 362.666667 96 362.666667v-64l92.224-0.021334 81.813333-163.626666a32 32 0 0 1 25.621334-17.536L298.666667 117.333333h426.666666z m-64 469.333334H362.666667v64h298.666666v-64z" fill="#111111" p-id="993"></path></svg>